<?xml version="1.0" encoding="utf-8"?>
<!-- Generator: Adobe Illustrator 22.1.0, SVG Export Plug-In . SVG Version: 6.00 Build 0)  -->
<svg version="1.1" xmlns="http://www.w3.org/2000/svg" xmlns:xlink="http://www.w3.org/1999/xlink" x="0px" y="0px"
	 viewBox="0 0 1000 1300" style="enable-background:new 0 0 1000 1300;" xml:space="preserve">
<style type="text/css">
	.st0{display:none;}
	.st1{display:inline;fill:#008FA2;}
	.st2{font-family:'V-Dub';}
	.st3{font-size:84.6454px;}
	.st4{letter-spacing:21;}
	.st5{font-family:'ZeroesTwo-Regular';}
	.st6{font-size:83.3546px;}
	.st7{letter-spacing:20.3;}
	.st8{fill:#0073A5;}
	.st9{fill:#FFFFFF;}
	.st10{fill:#00577B;}
	.st11{fill:#00A8D3;}
	.st12{fill:none;stroke:#000000;stroke-width:4;stroke-miterlimit:10;}
	.st13{fill:none;stroke:#000000;stroke-miterlimit:10;}
	.st14{fill:#0076AF;}
</style>
<g id="Capa_1">
</g>
<g id="Capa_2" class="st0">
	<text transform="matrix(1.3354 0 0 1 203.439 1088.4972)" class="st1 st2 st3 st4">Grimb</text>
</g>
<g id="Capa_3" class="st0">
	<text transform="matrix(1.3272 0 0 1 204.621 1095.0498)" class="st1 st5 st6 st7">GRINBIN</text>
</g>
<g id="SEPRADOR" class="st0">
	<rect x="571.1" y="1015.7" class="st1" width="50" height="100"/>
</g>
<g id="TIPOGRAFIA">
	<g>
		<polygon class="st8" points="199.3,1100.9 199.3,1063.6 153.7,1063.6 153.7,1075.1 186,1075.1 186,1088.3 136.7,1088.3 
			136.7,1051.5 193.6,1051.5 193.6,1039 136.7,1039 120.9,1054.8 120.9,1088.5 133,1100.6 		"/>
		<polygon class="st8" points="258.6,1100.9 258.6,1039 321.9,1039 333.3,1051.4 333.3,1064 325.9,1075.6 299.2,1075.6 
			333.3,1100.9 315.8,1100.9 280.6,1076.5 274.1,1076.5 274.1,1100.9 		"/>
		<rect x="274.9" y="1050.9" class="st9" width="44.2" height="12.5"/>
		<rect x="392.6" y="1039" class="st8" width="12.9" height="61.9"/>
		<polygon class="st8" points="464.7,1100.9 479.8,1100.9 479.7,1057.7 528.8,1100.9 539.6,1100.9 539.6,1039 527,1039 
			527.1,1082.2 478.3,1039 464.7,1039 		"/>
		<polygon class="st8" points="598.8,1100.9 598.8,1039 666.5,1039 678.7,1051.3 678.7,1063.3 671.7,1070.3 678.7,1075.6 
			678.7,1088.1 665.1,1100.9 		"/>
		<rect x="612.2" y="1051.3" class="st9" width="49.6" height="12.5"/>
		<rect x="612.2" y="1075.6" class="st9" width="49.6" height="12.5"/>
		<rect x="737.9" y="1039" class="st8" width="12.9" height="61.9"/>
		<polygon class="st8" points="810.1,1100.9 825.2,1100.9 825.1,1057.7 874.2,1100.9 885,1100.9 885,1039 872.4,1039 872.5,1082.2 
			823.7,1039 810.1,1039 		"/>
	</g>
	<g>
		<polygon class="st10" points="501.7,986.5 544,956.7 524.5,929.3 478.7,929.3 459.2,956.7 		"/>
		<polygon class="st11" points="580,823.9 714.3,754.7 714.3,711.9 806.5,631.9 764.6,807.9 551.1,948.8 535.1,925.1 		"/>
		<polygon class="st11" points="452.4,948.8 468.3,925.1 423.8,823.9 290.7,754.7 290.7,711.9 199.4,631.9 240.9,807.9 		"/>
		<polygon class="st11" points="827.6,577.4 868.1,157.3 738.1,460.3 		"/>
		<polygon class="st11" points="177.5,577.7 137.1,159.4 266.4,460.5 		"/>
		<path class="st12" d="M278.1,455.3"/>
		<path class="st12" d="M177.8,587.5"/>
		<polygon class="st10" points="825.8,595.8 731,471.9 584.3,813.7 		"/>
		<polygon class="st10" points="177.8,595.8 272.6,471.9 419.3,813.7 		"/>
		<path class="st13" d="M642.2,345.8"/>
		<polygon class="st14" points="528.1,917.9 872.5,115.5 642.2,345.8 362.6,345.8 132.2,115.5 476.7,917.9 		"/>
	</g>
</g>
</svg>
