<?xml version="1.0" encoding="utf-8"?>
<!-- Generator: Adobe Illustrator 22.1.0, SVG Export Plug-In . SVG Version: 6.00 Build 0)  -->
<svg version="1.1" xmlns="http://www.w3.org/2000/svg" xmlns:xlink="http://www.w3.org/1999/xlink" x="0px" y="0px"
	 viewBox="0 0 1000 1000" style="enable-background:new 0 0 1000 1000;" xml:space="preserve">
<style type="text/css">
	.st0{display:none;}
	.st1{display:inline;fill:none;stroke:#000000;stroke-miterlimit:10;}
	.st2{display:inline;fill:none;stroke:#000000;stroke-width:4;stroke-miterlimit:10;}
	.st3{display:inline;}
	.st4{display:inline;fill:#FFFFFF;}
	.st5{fill:#00577B;}
	.st6{fill:#00A8D3;}
	.st7{fill:none;stroke:#000000;stroke-width:4;stroke-miterlimit:10;}
	.st8{fill:none;stroke:#000000;stroke-miterlimit:10;}
	.st9{fill:#0076AF;}
</style>
<g id="Base" class="st0">
	<polygon class="st1" points="501.9,948.8 545.3,918.2 525.3,890.1 478.3,890.1 458.3,918.2 	"/>
	<polygon class="st1" points="582.3,781.9 720.2,710.8 720.2,666.9 814.9,584.7 771.8,765.5 552.7,910 536.3,885.8 	"/>
	<polygon class="st1" points="451.3,910 467.6,885.8 422,781.9 285.3,710.8 285.3,666.9 191.5,584.7 234.2,765.5 	"/>
	<polygon class="st1" points="836.5,528.7 878.2,97.4 744.6,408.6 	"/>
	<polygon class="st1" points="169.1,529 127.6,99.5 260.3,408.8 	"/>
	<path class="st2" d="M272.4,403.4"/>
	<path class="st2" d="M169.4,539.1"/>
	<polygon class="st1" points="834.7,547.7 737.4,420.4 586.7,771.3 	"/>
	<polygon class="st1" points="169.4,547.7 266.7,420.4 417.4,771.3 	"/>
	<path class="st1" d="M646.2,291"/>
	<g class="st3">
		<path d="M125.6,58.9l232.8,232.8l0.3,0.3h0.4h287.1h0.4l0.3-0.3L879.7,58.9L528.4,877.4h-51.5L125.6,58.9 M882.7,54.5L646.2,291
			H359.1L122.6,54.5l353.7,823.9H529L882.7,54.5L882.7,54.5z"/>
	</g>
</g>
<g id="Negativo" class="st0">
	<polygon class="st4" points="501.9,948.8 545.3,918.2 525.3,890.1 478.3,890.1 458.3,918.2 	"/>
	<polygon class="st4" points="582.3,781.9 720.2,710.8 720.2,666.9 814.9,584.7 771.8,765.5 552.7,910 536.3,885.8 	"/>
	<polygon class="st4" points="451.3,910 467.6,885.8 422,781.9 285.3,710.8 285.3,666.9 191.5,584.7 234.2,765.5 	"/>
	<polygon class="st4" points="836.5,528.7 878.2,97.4 744.6,408.6 	"/>
	<polygon class="st4" points="169.1,529 127.6,99.5 260.3,408.8 	"/>
	<path class="st2" d="M272.4,403.4"/>
	<path class="st2" d="M169.4,539.1"/>
	<polygon class="st4" points="834.7,547.7 737.4,420.4 586.7,771.3 	"/>
	<polygon class="st4" points="169.4,547.7 266.7,420.4 417.4,771.3 	"/>
	<path class="st1" d="M646.2,291"/>
	<polygon class="st4" points="529,878.4 882.7,54.5 646.2,291 359.1,291 122.6,54.5 476.2,878.4 	"/>
</g>
<g id="Positivo" class="st0">
	<polygon class="st3" points="501.9,948.8 545.3,918.2 525.3,890.1 478.3,890.1 458.3,918.2 	"/>
	<polygon class="st3" points="582.3,781.9 720.2,710.8 720.2,666.9 814.9,584.7 771.8,765.5 552.7,910 536.3,885.8 	"/>
	<polygon class="st3" points="451.3,910 467.6,885.8 422,781.9 285.3,710.8 285.3,666.9 191.5,584.7 234.2,765.5 	"/>
	<polygon class="st3" points="836.5,528.7 878.2,97.4 744.6,408.6 	"/>
	<polygon class="st3" points="169.1,529 127.6,99.5 260.3,408.8 	"/>
	<path class="st2" d="M272.4,403.4"/>
	<path class="st2" d="M169.4,539.1"/>
	<polygon class="st3" points="834.7,547.7 737.4,420.4 586.7,771.3 	"/>
	<polygon class="st3" points="169.4,547.7 266.7,420.4 417.4,771.3 	"/>
	<path class="st1" d="M646.2,291"/>
	<polygon class="st3" points="529,878.4 882.7,54.5 646.2,291 359.1,291 122.6,54.5 476.2,878.4 	"/>
</g>
<g id="FullColor">
	<g>
		<polygon class="st5" points="501.9,948.8 545.3,918.2 525.3,890.1 478.3,890.1 458.3,918.2 		"/>
		<polygon class="st6" points="582.3,781.9 720.2,710.8 720.2,666.9 814.9,584.7 771.8,765.5 552.7,910 536.3,885.8 		"/>
		<polygon class="st6" points="451.3,910 467.6,885.8 422,781.9 285.3,710.8 285.3,666.9 191.5,584.7 234.2,765.5 		"/>
		<polygon class="st6" points="836.5,528.7 878.2,97.4 744.6,408.6 		"/>
		<polygon class="st6" points="169.1,529 127.6,99.5 260.3,408.8 		"/>
		<path class="st7" d="M272.4,403.4"/>
		<path class="st7" d="M169.4,539.1"/>
		<polygon class="st5" points="834.7,547.7 737.4,420.4 586.7,771.3 		"/>
		<polygon class="st5" points="169.4,547.7 266.7,420.4 417.4,771.3 		"/>
		<path class="st8" d="M646.2,291"/>
		<polygon class="st9" points="529,878.4 882.7,54.5 646.2,291 359.1,291 122.6,54.5 476.2,878.4 		"/>
	</g>
</g>
</svg>
